<svg width="0" height="0" style="position:absolute"><symbol viewBox="0 0 24 24" id="svg-close-24px" xmlns="http://www.w3.org/2000/svg"><path d="M0 0h24v24H0V0z" fill="none"/><path d="M18.3 5.71a.996.996 0 00-1.41 0L12 10.59 7.11 5.7A.996.996 0 105.7 7.11L10.59 12 5.7 16.89a.996.996 0 101.41 1.41L12 13.41l4.89 4.89a.996.996 0 101.41-1.41L13.41 12l4.89-4.89c.38-.38.38-1.02 0-1.4z"/></symbol><symbol viewBox="0 0 24 24" id="svg-launch-24px" xmlns="http://www.w3.org/2000/svg"><path d="M0 0h24v24H0V0z" fill="none"/><path d="M18 19H6c-.55 0-1-.45-1-1V6c0-.55.45-1 1-1h5c.55 0 1-.45 1-1s-.45-1-1-1H5a2 2 0 00-2 2v14c0 1.1.9 2 2 2h14c1.1 0 2-.9 2-2v-6c0-.55-.45-1-1-1s-1 .45-1 1v5c0 .55-.45 1-1 1zM14 4c0 .55.45 1 1 1h2.59l-9.13 9.13a.996.996 0 101.41 1.41L19 6.41V9c0 .55.45 1 1 1s1-.45 1-1V3h-6c-.55 0-1 .45-1 1z"/></symbol><symbol preserveAspectRatio="none" viewBox="0 0 969 26" id="svg-loader-wave-bottom" xmlns="http://www.w3.org/2000/svg"><path d="M0 0h970C852 0 870 19.974 797 23.969c-48.807 2.67-64.89-16.687-139-16.978-36.736-.144-86.45 17.982-164 18.975-71.235.912-120.388-16.92-159-16.978-88.224-.132-114.267 15.762-172 12.983C80 17.977 121 1 0 0z"/></symbol><symbol preserveAspectRatio="none" viewBox="0 0 969 26" id="svg-loader-wave-top" xmlns="http://www.w3.org/2000/svg"><path d="M0 26c121-.999 80-17.977 163-21.971 57.733-2.78 83.776 13.115 172 12.983 38.612-.058 87.765-17.89 159-16.978 77.55.993 127.264 19.12 164 18.975 74.11-.29 90.193-19.649 139-16.978C870 6.026 852 26 970 26H0z"/></symbol></svg>