<svg width="0" height="0" style="position:absolute" xmlns="http://www.w3.org/2000/svg" xmlns:xlink="http://www.w3.org/1999/xlink"><symbol preserveAspectRatio="none" viewBox="0 0 969 26" id="svg-loader-wave-bottom" xmlns="http://www.w3.org/2000/svg"><path d="M0 0h970C852 0 870 19.974 797 23.969c-48.807 2.67-64.89-16.687-139-16.978-36.736-.144-86.45 17.982-164 18.975-71.235.912-120.388-16.92-159-16.978-88.224-.132-114.267 15.762-172 12.983C80 17.977 121 1 0 0z"/></symbol><symbol preserveAspectRatio="none" viewBox="0 0 969 26" id="svg-loader-wave-top" xmlns="http://www.w3.org/2000/svg"><path d="M0 26c121-.999 80-17.977 163-21.971 57.733-2.78 83.776 13.115 172 12.983 38.612-.058 87.765-17.89 159-16.978 77.55.993 127.264 19.12 164 18.975 74.11-.29 90.193-19.649 139-16.978C870 6.026 852 26 970 26H0z"/></symbol></svg>
